<?xml version="1.0" standalone="no"?>
<!DOCTYPE svg PUBLIC "-//W3C//DTD SVG 20010904//EN"
 "http://www.w3.org/TR/2001/REC-SVG-20010904/DTD/svg10.dtd">
<svg version="1.0" xmlns="http://www.w3.org/2000/svg"
 width="22.000000pt" height="22.000000pt" viewBox="0 0 22.000000 22.000000"
 preserveAspectRatio="xMidYMid meet">

<g transform="translate(0.000000,22.000000) scale(0.100000,-0.100000)"
fill="#000000" stroke="none">
<path d="M51 194 c-34 -25 -53 -76 -40 -111 17 -46 69 -93 69 -63 0 6 -6 10
-14 10 -8 0 -17 7 -20 16 -5 12 -1 14 17 8 l22 -6 -23 25 c-19 20 -22 32 -17
59 l6 33 59 0 c58 0 59 0 65 -31 6 -36 -1 -60 -21 -68 -15 -6 -20 -56 -6 -56
14 0 50 43 61 73 22 58 -31 127 -99 127 -20 0 -46 -7 -59 -16z"/>
</g>
</svg>
